<?xml version="1.0" encoding="UTF-8"?>
<!DOCTYPE svg PUBLIC "-//W3C//DTD SVG 1.1//EN" "http://www.w3.org/Graphics/SVG/1.1/DTD/svg11.dtd">
<!-- Creator: CorelDRAW 2019 (64-Bit) -->
<svg xmlns="http://www.w3.org/2000/svg" xml:space="preserve" width="7.2694mm" height="10.0012mm" version="1.1" style="shape-rendering:geometricPrecision; text-rendering:geometricPrecision; image-rendering:optimizeQuality; fill-rule:evenodd; clip-rule:evenodd"
viewBox="0 0 726.94 1000.12"
 xmlns:xlink="http://www.w3.org/1999/xlink"
 xmlns:xodm="http://www.corel.com/coreldraw/odm/2003">
 <defs>
  <style type="text/css">
   <![CDATA[
    .fil5 {fill:#00863F;fill-rule:nonzero}
    .fil1 {fill:#008A5A;fill-rule:nonzero}
    .fil2 {fill:#009550;fill-rule:nonzero}
    .fil3 {fill:#00983E;fill-rule:nonzero}
    .fil4 {fill:#009A37;fill-rule:nonzero}
    .fil6 {fill:#06CBF6;fill-rule:nonzero}
    .fil0 {fill:#2AC64B;fill-rule:nonzero}
    .fil8 {fill:#666565;fill-rule:nonzero}
    .fil12 {fill:#97CC1A;fill-rule:nonzero}
    .fil16 {fill:url(#id0)}
    .fil11 {fill:url(#id1)}
    .fil7 {fill:url(#id2)}
    .fil17 {fill:url(#id3)}
    .fil13 {fill:url(#id4)}
    .fil18 {fill:url(#id5)}
    .fil10 {fill:url(#id6)}
    .fil15 {fill:url(#id7)}
    .fil14 {fill:url(#id8)}
    .fil9 {fill:url(#id9)}
   ]]>
  </style>
  <linearGradient id="id0" gradientUnits="userSpaceOnUse" x1="419.48" y1="850.55" x2="285.58" y2="624.74">
   <stop offset="0" style="stop-opacity:1; stop-color:#E1282B"/>
   <stop offset="0.388235" style="stop-opacity:1; stop-color:#E3402A"/>
   <stop offset="0.701961" style="stop-opacity:1; stop-color:#E76226"/>
   <stop offset="1" style="stop-opacity:1; stop-color:#F19A0A"/>
  </linearGradient>
  <linearGradient id="id1" gradientUnits="userSpaceOnUse" x1="329.88" y1="663.73" x2="221.48" y2="395.69">
   <stop offset="0" style="stop-opacity:1; stop-color:#CB1918"/>
   <stop offset="0.388235" style="stop-opacity:1; stop-color:#A2183D"/>
   <stop offset="0.74902" style="stop-opacity:1; stop-color:#902869"/>
   <stop offset="1" style="stop-opacity:1; stop-color:#73358A"/>
  </linearGradient>
  <linearGradient id="id2" gradientUnits="userSpaceOnUse" x1="200.45" y1="52.93" x2="641.09" y2="66.28">
   <stop offset="0" style="stop-opacity:1; stop-color:#0288F7"/>
   <stop offset="1" style="stop-opacity:1; stop-color:#2EE2BD"/>
  </linearGradient>
  <linearGradient id="id3" gradientUnits="userSpaceOnUse" xlink:href="#id0" x1="345.67" y1="894.32" x2="211.77" y2="668.51">
  </linearGradient>
  <linearGradient id="id4" gradientUnits="userSpaceOnUse" x1="552.63" y1="512.01" x2="395.34" y2="683.82">
   <stop offset="0" style="stop-opacity:1; stop-color:#ADD816"/>
   <stop offset="1" style="stop-opacity:1; stop-color:#DBD704"/>
  </linearGradient>
  <linearGradient id="id5" gradientUnits="userSpaceOnUse" xlink:href="#id0" x1="320.92" y1="908.99" x2="187.03" y2="683.19">
  </linearGradient>
  <linearGradient id="id6" gradientUnits="userSpaceOnUse" xlink:href="#id1" x1="179.39" y1="724.58" x2="71.01" y2="456.54">
  </linearGradient>
  <linearGradient id="id7" gradientUnits="userSpaceOnUse" xlink:href="#id0" x1="442.24" y1="837.05" x2="308.35" y2="611.24">
  </linearGradient>
  <linearGradient id="id8" gradientUnits="userSpaceOnUse" xlink:href="#id0" x1="433.69" y1="842.12" x2="299.8" y2="616.33">
  </linearGradient>
  <linearGradient id="id9" gradientUnits="userSpaceOnUse" xlink:href="#id1" x1="234.17" y1="702.44" x2="125.78" y2="434.4">
  </linearGradient>
 </defs>
 <g id="Layer_x0020_1">
  <metadata id="CorelCorpID_0Corel-Layer"/>
  <g id="_2250141580512">
   <path class="fil0" d="M473.68 425.33c-0.3,3.42 -0.7,6.88 -1.07,10.35 -42.2,22.04 -84.19,51.73 -121.94,91.78 -12.22,12.95 -23.34,25.93 -33.52,38.88 -11.41,-14.44 -23.61,-29.07 -36.54,-43.77 -5.8,-6.57 -11.61,-12.95 -17.47,-19.15 -9.71,-64.97 -15.88,-129.09 -17.01,-189.17 75.11,26.67 156.2,62.85 227.55,111.08l0 0zm-317.2 -16.53c-30.9,-22.66 -59.9,-40.24 -85.1,-53.69 -5.11,-31.41 -7.3,-62.52 -5.37,-92.15 23.31,5.15 50.85,11.79 81.17,20.22 -2.02,39.61 1.71,82.21 9.3,125.62zm-120.78 -71.31c-12.22,-5.55 -22.8,-9.85 -31.41,-13.09 -1.83,-13.58 -3.13,-27.18 -3.98,-40.82 -0.65,-11.24 -0.25,-22.33 1.1,-33.23 7.33,1.2 17.73,3.03 30.68,5.54 -1.27,15.43 -1.39,31.69 0,48.88 0.87,10.97 2.07,21.89 3.61,32.72z"/>
   <path class="fil1" d="M44.92 192.75c-6.31,19.15 -10.9,40.19 -12.83,63.14 -12.95,-2.51 -23.34,-4.34 -30.68,-5.54 0.83,-6.86 2.05,-13.65 3.61,-20.32 9.19,-9.89 22.51,-22.98 39.9,-37.28z"/>
   <path class="fil2" d="M191.9 109.95c-22.22,40.74 -40.02,95.64 -44.51,168.92 -0.07,1.42 -0.14,2.88 -0.22,4.3 -30.32,-8.43 -57.85,-15.06 -81.16,-20.2 0.04,-0.99 0.11,-1.94 0.18,-2.92 2.89,-38.42 14.23,-73.64 31.37,-104.94 26.52,-16.38 57.93,-32.29 94.34,-45.16z"/>
   <path class="fil3" d="M473.68 425.33c-71.35,-48.23 -152.44,-84.41 -227.55,-111.08 -1.45,-71.57 4.13,-137.36 18.93,-191.87 0.41,-1.49 0.81,-2.98 1.25,-4.45 59.56,35.21 137.18,74.46 210.87,91.71 6.42,64.96 4.48,138.79 -3.5,215.69l0 0z"/>
   <path class="fil4" d="M651.1 379.36c-23.68,3.39 -50.39,8.68 -78.57,16.74 6.46,-40.59 9.26,-80.24 6.99,-117.23 -5.14,-84.37 -27.97,-144.34 -54.85,-186.47 25.27,4.16 49.24,9.08 71.34,14.26 35.28,41.66 60.23,93.63 64.71,153.39 2.85,38.08 -1.23,78.68 -9.62,119.31zm75.5 -95.78c-1.82,30.23 -6.12,60.15 -12.84,90.05 -8.5,0.33 -18.28,0.88 -29.14,1.83 4.78,-23.05 8.28,-46.65 10.21,-70.69 6.46,-80.87 -19.66,-142.48 -49.9,-185.49 8.87,2.52 17.26,5 25.1,7.41 33.96,43.04 60.15,98.34 56.57,156.89z"/>
   <path class="fil5" d="M477.17 209.64c-73.68,-17.26 -151.3,-56.5 -210.86,-91.71 3.14,-10.9 6.66,-20.82 10.53,-29.83 10.91,-1.86 22.15,-3.39 33.71,-4.56 46.54,-4.74 93.01,-4.3 137.26,-0.66 5.22,11.53 10,24.62 14.05,39.5 7.21,26.6 12.25,55.89 15.31,87.26z"/>
   <path class="fil6" d="M209.14 82.08c-5.94,8.46 -11.74,17.73 -17.25,27.87 -36.4,12.87 -67.81,28.78 -94.32,45.16 20.28,-37.22 48.76,-68.91 80.9,-94.04 7.62,5.43 18.05,12.65 30.67,21.01zm-50.08 -38.49c-2.44,1.5 -81.59,50.24 -114.14,149.16 -17.39,14.29 -30.71,27.39 -39.89,37.28 21.51,-93.32 107.42,-169.55 154.03,-186.44z"/>
   <path class="fil7" d="M364.21 0l-1.5 0c0,0 -53.18,11.03 -85.87,88.1l0 0c10.91,-1.86 22.15,-3.39 33.72,-4.56l0 0c46.54,-4.75 93.01,-4.31 137.25,-0.66l0 0c-32.83,-72.37 -83.6,-82.88 -83.6,-82.88zm160.46 92.4c25.27,4.16 49.23,9.08 71.34,14.26l0 0c-48.07,-56.76 -115.33,-94.4 -176.4,-106.62l0 0c2.77,0.95 59.72,21.16 105.06,92.36zm-346.21 -31.33c7.63,5.43 18.06,12.66 30.68,21.01l0 0c44.03,-62.85 95.54,-81.13 98.17,-82.04l0 0c-42.82,8.57 -88.69,29.66 -128.85,61.03zm466.47 58.21c8.87,2.52 17.26,5 25.1,7.41 -33.57,-42.56 -74.75,-73.21 -102.25,-83.13l0 0c0,0 41.44,24.88 77.15,75.72l0 0z"/>
   <polygon class="fil8" points="363.45,1000.12 418.11,1000.12 438.34,911.88 288.58,911.88 308.8,1000.12 "/>
   <path class="fil9" d="M157.02 605.12c10.51,21.74 20.54,41.14 29.17,57.34l0 0c14.82,27.72 28.9,51.28 43.42,72.73l0 0c4.19,-14.7 9.44,-30.2 15.97,-46.25 -11.27,-25.86 -22.58,-53.62 -33.33,-82.55l0 0c-23.38,-62.84 -44.14,-131.2 -55.77,-197.59l0 0c-30.89,-22.65 -59.9,-40.23 -85.11,-53.69l0 0c14.45,89.37 52.41,181.4 85.65,250.01l0 0z"/>
   <path class="fil10" d="M107.63 603.99c5.95,10.39 12.15,20.85 18.57,31.4l0 0c30.01,49.21 64.67,94.66 95.53,131.58l0 0c0.91,-4.49 1.97,-9.1 3.15,-13.79l0 0c-12.49,-17.15 -24.67,-34.59 -35.14,-50.75l0 0c-15.03,-23.12 -36.77,-56.64 -59.42,-97.9l0 0c-38.81,-70.76 -80.24,-164.28 -94.62,-267.04l0 0c-12.22,-5.55 -22.79,-9.84 -31.41,-13.09 12.41,92.14 47.64,182.56 103.34,279.59l0 0z"/>
   <path class="fil11" d="M268.57 537.71c3.9,23.27 8.46,46.91 13.38,70.25l0 0c0.48,2.23 0.95,4.45 1.43,6.67 9.84,-15.94 21.05,-32.1 33.77,-48.28l0 0c-11.79,-14.92 -23.98,-29.52 -36.55,-43.78l0 0c-5.79,-6.57 -11.6,-12.94 -17.46,-19.15 1.7,11.42 3.49,22.84 5.43,34.29l0 0z"/>
   <path class="fil12" d="M572.53 396.11c-5.09,32.23 -12.45,65.06 -21.33,97.6 15.35,13.84 32.14,29.35 48.63,45.26 20.63,-49.28 39.92,-104.49 51.27,-159.61 -23.68,3.4 -50.38,8.69 -78.57,16.75zm112.09 -20.65c-13.91,67.51 -38.4,130.05 -64.44,183.53 5.26,5.29 10.4,10.56 15.38,15.78 37.11,-68.99 63.49,-135 78.2,-201.14 -8.5,0.34 -18.28,0.87 -29.14,1.83z"/>
   <path class="fil13" d="M350.67 527.45c-12.22,12.96 -23.34,25.95 -33.52,38.9l0 0c44.39,56.09 77.41,109.42 101.3,154.03l0 0c8.69,-33.55 17.69,-70.69 25.74,-108.73l0 0c5.23,-24.55 10.04,-49.43 14.16,-73.94l0 0c5.77,-34.22 10.58,-68.39 14.26,-102.03 -42.2,22.03 -84.18,51.73 -121.94,91.77zm199.36 -29.49c-28.61,103.32 -72.18,203.42 -106.67,272.39l0 0c3.76,8.21 7.15,15.84 10.14,22.84l0 0c31.85,-37.9 58.1,-76.28 87.22,-130.73l0 0c16,-29.98 36.74,-70.84 56.5,-117.33l0 0 2.61 -6.16c-16.49,-15.91 -33.28,-31.42 -48.63,-45.26l0 0 -1.17 4.25zm67.15 67.13c-29.45,59.45 -60.43,107.2 -80,137.34l0 0c-22.58,34.77 -53,75.52 -77.11,106.7l0 0c0.87,2.3 1.71,4.45 2.51,6.49l0 0c37.35,-40.67 93.02,-106.22 138.14,-180.23l0 0c11.32,-18.57 21.92,-36.89 31.79,-54.98l0 0c1.02,-1.89 2.04,-3.76 3.05,-5.64l0 0c-4.98,-5.22 -10.12,-10.49 -15.38,-15.78l0 0c-1,2.05 -2,4.08 -3,6.1l0 0z"/>
   <path class="fil14" d="M392.21 860.27c23.28,-24.11 43.2,-45.53 61.29,-67.08l0 0c-2.99,-7 -6.38,-14.63 -10.14,-22.84 -24.43,48.89 -44.36,82.14 -51.15,89.92z"/>
   <path class="fil15" d="M420.78 858.85c1.24,-1.21 17.73,-17.07 41.8,-43.23l0 0c-0.8,-2.04 -1.64,-4.19 -2.51,-6.49l0 0c-21.56,27.91 -38.01,48.19 -39.29,49.72z"/>
   <path class="fil16" d="M348.59 861.29l29.74 0c0,0 19.14,-59.93 40.12,-140.91l0 0c-23.89,-44.61 -56.91,-97.94 -101.3,-154.03l0 0c-12.72,16.18 -23.93,32.34 -33.77,48.28 27.5,128.65 65.21,246.66 65.21,246.66z"/>
   <path class="fil17" d="M229.61 735.19c30.06,44.65 61.75,80.15 105.09,125.08 -10.1,-11.56 -49.21,-79.51 -89.12,-171.33l0 0c-6.53,16.05 -11.78,31.55 -15.97,46.25z"/>
   <path class="fil18" d="M221.73 766.97l0 0c45.38,54.31 82.55,90.05 84.44,91.88 -2,-2.48 -42.96,-52.82 -81.29,-105.67l0 0c-1.18,4.69 -2.24,9.3 -3.15,13.79l0 0z"/>
  </g>
 </g>
</svg>
