<?xml version="1.0" encoding="UTF-8"?>
<!DOCTYPE svg PUBLIC "-//W3C//DTD SVG 1.1//EN" "http://www.w3.org/Graphics/SVG/1.1/DTD/svg11.dtd">
<!-- Creator: CorelDRAW 2019 (64-Bit) -->
<svg xmlns="http://www.w3.org/2000/svg" xml:space="preserve" width="11.6407mm" height="7.3722mm" version="1.1" style="shape-rendering:geometricPrecision; text-rendering:geometricPrecision; image-rendering:optimizeQuality; fill-rule:evenodd; clip-rule:evenodd"
viewBox="0 0 1164.08 737.23"
 xmlns:xlink="http://www.w3.org/1999/xlink"
 xmlns:xodm="http://www.corel.com/coreldraw/odm/2003">
 <defs>
  <style type="text/css">
   <![CDATA[
    .fil0 {fill:white;fill-rule:nonzero}
   ]]>
  </style>
 </defs>
 <g id="Layer_x0020_1">
  <metadata id="CorelCorpID_0Corel-Layer"/>
  <path class="fil0" d="M365.97 593.63l-200.45 0 0 -192.93 210.14 0c0,0 76.1,-1 76.1,99.14 0,83.5 -55.66,92.96 -85.79,93.79zm389.56 -462.18l297.84 0 0 -88.92 -297.84 0 0 88.92zm268.23 269.25l-237.15 0c0,0 15.53,-111.28 127.05,-111.28 111.51,0 110.1,111.28 110.1,111.28zm-112.93 -217.01c-277.61,0 -277.36,277.36 -277.36,277.36 0,0 -19.06,275.97 277.37,275.97 0,0 247.03,14.11 247.03,-191.97l-127.05 0c0,0 4.24,77.62 -115.75,77.62 0,0 -127.04,8.5 -127.04,-125.61l374.07 0c0,0 40.93,-313.37 -251.27,-313.37zm-745.32 -55.37l210.14 0c0,0 51.07,0 51.07,75.1 0,75.11 -30.05,86 -64.09,86l-197.12 0 0 -161.1zm304.27 201.28c0,0 110.15,-8.18 110.15,-137.36 0,-129.19 -90.12,-192.23 -204.28,-192.23l-375.66 0 0 721.94 375.66 0c0,0 229.32,7.23 229.32,-213.09 0,0 10.01,-179.25 -135.19,-179.25z"/>
 </g>
</svg>
